# Blender 4.0.2
# www.blender.org
mtllib Pared.mtl
o Cube
v 8.000000 1.000000 0.000000
v 8.000000 -1.000000 0.000000
v 8.000000 1.000000 1.000000
v 8.000000 -1.000000 1.000000
v -8.000000 1.000000 0.000000
v -8.000000 -1.000000 0.000000
v -8.000000 1.000000 1.000000
v -8.000000 -1.000000 1.000000
v 7.002045 -1.000000 0.000000
v 7.002045 1.000000 1.000000
v 7.002045 -1.000000 1.000000
v 7.002045 1.000000 0.000000
v -6.970448 -1.000000 0.000000
v -6.970448 1.000000 1.000000
v -6.970448 -1.000000 1.000000
v -6.970448 1.000000 0.000000
v -8.000000 1.000000 0.000000
v -8.000000 -1.000000 0.000000
v -6.970448 -1.000000 0.000000
v -6.970448 1.000000 0.000000
v -6.970448 -1.000000 -16.000000
v -8.000000 -1.000000 -16.000000
v -8.000000 1.000000 -16.000000
v -6.970448 1.000000 -16.000000
v 7.002045 -1.000000 -29.000000
v 7.002045 -10.000000 -29.000000
v -8.000000 -10.000000 1.000000
v -8.000000 -10.000000 0.000000
v 8.000000 1.000000 -16.000000
v 8.000000 -1.000000 -16.000000
v 7.002045 1.000000 -16.000000
v 7.002045 -1.000000 -16.000000
v -6.970448 10.000000 1.000000
v -8.000000 10.000000 1.000000
v 8.000000 10.000000 0.000000
v 8.000000 10.000000 1.000000
v -8.000000 10.000000 0.000000
v 7.002045 10.000000 0.000000
v 7.002045 10.000000 1.000000
v -6.970448 10.000000 0.000000
v -8.000000 10.000000 0.000000
v -6.970448 10.000000 0.000000
v -8.000000 10.000000 -16.000000
v -6.970448 10.000000 -16.000000
v -8.000000 10.000000 -16.000000
v -6.970448 10.000000 -16.000000
v 7.002045 10.000000 -16.000000
v 8.000000 10.000000 -16.000000
v -6.970448 -10.000000 0.000000
v 7.002045 -10.000000 1.000000
v 8.000000 -10.000000 1.000000
v 8.000000 -10.000000 0.000000
v 7.002045 -10.000000 0.000000
v -6.970448 -10.000000 1.000000
v -6.970448 -10.000000 0.000000
v -8.000000 -10.000000 0.000000
v -6.970448 -10.000000 -16.000000
v -8.000000 -10.000000 -16.000000
v -6.970448 -10.000000 -16.000000
v -8.000000 -10.000000 -16.000000
v 8.000000 -10.000000 -16.000000
v 7.002045 -10.000000 -16.000000
v -8.000000 6.000000 -22.000000
v -8.000000 1.000000 -29.000000
v 8.000000 -1.000000 -29.000000
v 8.000000 -10.000000 -29.000000
v -6.970448 -1.000000 -29.000000
v -8.000000 -1.000000 -29.000000
v -6.970448 1.000000 -29.000000
v -6.970448 -10.000000 -29.000000
v 8.000000 6.000000 -22.000000
v 8.000000 1.000000 -29.000000
v 7.002045 1.000000 -29.000000
v 7.002045 6.000000 -22.000000
v -6.970448 6.000000 -22.000000
v -8.000000 6.000000 -22.000000
v -6.970448 6.000000 -22.000000
v -8.000000 -10.000000 -29.000000
v -6.970448 -10.000000 -29.000000
v -8.000000 -10.000000 -29.000000
v 8.000000 8.650000 0.000000
v 8.000000 8.650000 -16.000000
v 7.002045 8.650000 -16.000000
v 8.000000 8.650000 1.000000
v 7.002045 8.650000 1.000000
v 7.002045 8.650000 0.000000
v 8.000000 5.250000 -23.049999
v 7.002045 5.250000 -23.049999
v 8.000000 8.650000 0.000000
v 7.002045 5.250000 -23.049999
v 7.002045 8.650000 0.000000
v 8.000000 8.650000 -16.000000
v 8.000000 8.650000 1.000000
v 7.002045 8.650000 -16.000000
v 7.002045 8.650000 1.000000
v 8.000000 5.250000 -23.049999
v -6.997955 8.650000 -16.000000
v -6.997955 10.000000 -16.000000
v -6.997955 10.000000 0.000000
v -6.997955 8.650000 0.000000
v 7.002045 -8.650000 -16.000000
v 8.000000 -8.650000 -16.000000
v 8.000000 -8.650000 1.000000
v 7.002045 -8.650000 1.000000
v 8.000000 -8.650000 0.000000
v 7.002045 -8.650000 0.000000
v 7.002045 -8.650000 -29.000000
v 8.000000 -8.650000 -29.000000
v -6.997955 -10.000000 -16.000000
v -6.997955 -10.000000 0.000000
v -6.997955 -8.650000 0.000000
v -6.997955 -10.000000 -29.000000
v -6.997955 -8.650000 -16.000000
v -6.997955 -8.650000 -29.000000
vn -0.0000 -0.0000 1.0000
vn -1.0000 -0.0000 -0.0000
vn 1.0000 -0.0000 -0.0000
vn -0.0000 1.0000 -0.0000
vn -0.0000 -0.0000 -1.0000
vn -0.0000 -1.0000 -0.0000
vn -0.0000 0.8137 -0.5812
vn -0.0000 0.8321 -0.5547
vt 0.060607 0.576633
vt 0.056195 0.576633
vt 0.056195 0.538069
vt 0.060607 0.538069
vt 0.056195 0.585203
vt 0.060607 0.585203
vt 0.103329 0.184741
vt 0.094759 0.184741
vt 0.094759 0.180457
vt 0.103329 0.180457
vt 0.328412 0.129038
vt 0.328412 0.060480
vt 0.334196 0.060480
vt 0.334196 0.129038
vt 0.295633 0.060480
vt 0.287063 0.060480
vt 0.287063 0.056195
vt 0.295633 0.056195
vt 0.295633 0.129038
vt 0.287063 0.129038
vt 0.409506 0.605910
vt 0.415233 0.606719
vt 0.425430 0.638670
vt 0.422878 0.633765
vt 0.328412 0.056195
vt 0.334196 0.056195
vt 0.654623 0.575133
vt 0.654623 0.566563
vt 0.658899 0.566563
vt 0.658899 0.575133
vt 0.413782 0.907800
vt 0.409506 0.907800
vt 0.409506 0.902015
vt 0.413782 0.902015
vt 0.232851 0.921605
vt 0.424830 0.538837
vt 0.419102 0.538027
vt 0.943804 0.726088
vt 0.094759 0.111899
vt 0.056195 0.180457
vt 0.056195 0.111899
vt 0.254284 0.129038
vt 0.287063 0.184741
vt 0.268852 0.159246
vt 0.056195 0.184741
vt 0.279984 0.365690
vt 0.279984 0.297132
vt 0.318548 0.297132
vt 0.318548 0.365690
vt 0.943804 0.838479
vt 0.103329 0.111899
vt 0.271414 0.297132
vt 0.271414 0.365690
vt 0.409506 0.751061
vt 0.413917 0.751061
vt 0.413917 0.789624
vt 0.409506 0.789624
vt 0.505067 0.352836
vt 0.472288 0.352836
vt 0.472288 0.297132
vt 0.505067 0.297132
vt 0.472288 0.421393
vt 0.463718 0.421393
vt 0.463718 0.352836
vt 0.654623 0.607912
vt 0.658899 0.607912
vt 0.658899 0.613697
vt 0.654623 0.613697
vt 0.831414 0.764652
vt 0.827002 0.764652
vt 0.827002 0.726088
vt 0.831414 0.726088
vt 0.658908 0.907036
vt 0.658908 0.911448
vt 0.654623 0.911448
vt 0.654623 0.907036
vt 0.297115 0.538069
vt 0.292839 0.538069
vt 0.292839 0.533784
vt 0.297115 0.533784
vt 0.334196 0.184741
vt 0.328412 0.184741
vt 0.537821 0.533784
vt 0.542232 0.533784
vt 0.542232 0.602342
vt 0.537821 0.602342
vt 0.297115 0.606627
vt 0.292839 0.606627
vt 0.777075 0.593772
vt 0.771290 0.593772
vt 0.771290 0.533784
vt 0.777075 0.533784
vt 0.232851 0.365690
vt 0.232851 0.297132
vt 0.858220 0.335696
vt 0.853809 0.335696
vt 0.853809 0.297132
vt 0.858220 0.297132
vt 0.425430 0.534594
vt 0.419702 0.533784
vt 0.060472 0.301417
vt 0.056195 0.301417
vt 0.056195 0.297132
vt 0.060472 0.297132
vt 0.060480 0.908536
vt 0.060480 0.912948
vt 0.056195 0.912948
vt 0.056195 0.908536
vt 0.618966 0.056195
vt 0.623378 0.056195
vt 0.623378 0.124753
vt 0.618966 0.124753
vt 0.060472 0.369975
vt 0.056195 0.369975
vt 0.318548 0.421393
vt 0.279984 0.421393
vt 0.141893 0.111899
vt 0.141893 0.180457
vt 0.889466 0.533784
vt 0.893877 0.533784
vt 0.893877 0.572348
vt 0.889466 0.572348
vt 0.430939 0.421393
vt 0.430939 0.352836
vt 0.506575 0.056195
vt 0.506575 0.124753
vt 0.446587 0.124753
vt 0.446587 0.056195
vt 0.060607 0.623766
vt 0.056195 0.623766
vt 0.141893 0.184741
vt 0.741553 0.116184
vt 0.741553 0.120460
vt 0.735769 0.120460
vt 0.735769 0.116184
vt 0.537821 0.749012
vt 0.537821 0.740442
vt 0.542232 0.740442
vt 0.542232 0.749012
vt 0.297115 0.636835
vt 0.292839 0.636835
vt 0.292839 0.632336
vt 0.297115 0.632336
vt 0.774332 0.116184
vt 0.782902 0.116184
vt 0.782902 0.120460
vt 0.774332 0.120460
vt 0.831414 0.907037
vt 0.827002 0.907037
vt 0.827002 0.877042
vt 0.831414 0.877042
vt 0.542232 0.787576
vt 0.537821 0.787576
vt 0.463718 0.297132
vt 0.895293 0.059404
vt 0.900106 0.056195
vt 0.900106 0.087094
vt 0.899928 0.092620
vt 0.073335 0.086189
vt 0.094759 0.056195
vt 0.103329 0.056195
vt 0.141893 0.056195
vt 0.271414 0.421393
vt 0.249990 0.391399
vt 0.060472 0.425678
vt 0.056195 0.425678
vt 0.542232 0.628051
vt 0.537821 0.628051
vt 0.295633 0.184741
vt 0.623378 0.180457
vt 0.618966 0.180457
vt 0.445507 0.322627
vt 0.254284 0.060480
vt 0.254284 0.056195
vt 0.542097 0.925462
vt 0.537821 0.925462
vt 0.537821 0.899967
vt 0.542097 0.899967
vt 0.654623 0.533784
vt 0.658899 0.533784
vt 0.741418 0.297132
vt 0.741418 0.365690
vt 0.735633 0.365690
vt 0.735633 0.297132
vt 0.056195 0.736157
vt 0.061980 0.736157
vt 0.061980 0.796145
vt 0.056195 0.796145
vt 0.232851 0.606627
vt 0.232851 0.538069
vt 0.654623 0.794646
vt 0.654623 0.726088
vt 0.714611 0.726088
vt 0.714611 0.794646
vt 0.505067 0.421393
vt 0.120460 0.301417
vt 0.120460 0.369975
vt 0.617458 0.421393
vt 0.617458 0.352836
vt 0.623242 0.352836
vt 0.623242 0.421393
vt 0.617458 0.297132
vt 0.623242 0.297132
vt 0.120460 0.425678
vt 0.506575 0.180457
vt 0.446587 0.180457
vt 0.735769 0.056195
vt 0.741553 0.056195
vt 0.238635 0.809214
vt 0.232851 0.809214
vt 0.232851 0.749226
vt 0.238635 0.749226
s 0
usemtl Material
f 7/1/1 14/2/1 33/3/1 34/4/1
f 15/5/1 14/2/1 7/1/1 8/6/1
f 8/7/2 7/8/2 5/9/2 6/10/2
f 102/11/3 105/12/3 52/13/3 61/14/3
f 2/15/3 1/16/3 3/17/3 4/18/3
f 1/16/3 2/15/3 30/19/3 29/20/3
f 48/21/3 82/22/3 87/23/3 71/24/3
f 105/12/3 103/25/3 51/26/3 52/13/3
f 4/27/1 3/28/1 10/29/1 11/30/1
f 85/31/1 84/32/1 36/33/1 39/34/1
f 13/35/4 19/35/4 55/35/4 49/35/4
f 81/36/3 82/22/3 48/21/3 35/37/3
f 95/38/4 93/38/4 84/38/4 85/38/4
f 23/39/2 5/9/2 37/40/2 43/41/2
f 18/35/4 6/35/4 28/35/4 56/35/4
f 92/42/3 29/20/3 72/43/3 96/44/3
f 57/35/4 59/35/4 79/35/4 70/35/4
f 5/9/2 7/8/2 34/45/2 37/40/2
f 21/46/3 13/47/3 49/48/3 57/49/3
f 5/50/4 17/50/4 41/50/4 37/50/4
f 6/10/2 5/9/2 23/39/2 22/51/2
f 16/52/3 13/47/3 21/46/3 24/53/3
f 6/54/5 13/55/5 49/56/5 28/57/5
f 101/58/2 32/59/2 25/60/2 107/61/2
f 43/50/4 45/50/4 76/50/4 63/50/4
f 9/62/2 12/63/2 31/64/2 32/59/2
f 103/65/1 104/66/1 50/67/1 51/68/1
f 16/69/5 5/70/5 37/71/5 40/72/5
f 40/73/4 37/74/4 34/75/4 33/76/4
f 35/77/4 38/78/4 39/79/4 36/80/4
f 37/50/4 41/50/4 45/50/4 43/50/4
f 96/38/4 90/38/4 88/38/4 87/38/4
f 102/11/3 61/14/3 66/81/3 108/82/3
f 41/83/4 42/84/4 46/85/4 45/86/4
f 42/50/4 40/50/4 44/50/4 46/50/4
f 38/78/4 35/77/4 48/87/4 47/88/4
f 86/89/1 38/90/1 99/91/1 100/92/1
f 93/38/4 89/38/4 81/38/4 84/38/4
f 60/35/4 58/35/4 78/35/4 80/35/4
f 16/52/3 24/53/3 44/93/3 40/94/3
f 17/95/1 20/96/1 42/97/1 41/98/1
f 84/99/3 81/36/3 35/37/3 36/100/3
f 89/38/4 92/38/4 82/38/4 81/38/4
f 20/50/4 16/50/4 40/50/4 42/50/4
f 53/101/6 52/102/6 51/103/6 50/104/6
f 94/38/4 83/38/4 88/38/4 90/38/4
f 28/105/6 49/106/6 54/107/6 27/108/6
f 49/35/4 55/35/4 59/35/4 57/35/4
f 55/109/6 56/110/6 60/111/6 59/112/6
f 46/50/4 44/50/4 75/50/4 77/50/4
f 56/35/4 28/35/4 58/35/4 60/35/4
f 52/102/6 53/101/6 62/113/6 61/114/6
f 21/46/3 57/49/3 70/115/3 67/116/3
f 94/38/4 91/38/4 86/38/4 83/38/4
f 6/10/2 22/51/2 58/117/2 28/118/2
f 19/119/1 18/120/1 56/121/1 55/122/1
f 31/64/2 12/63/2 91/123/2 94/124/2
f 106/125/4 101/126/4 113/127/4 111/128/4
f 15/5/1 8/6/1 27/129/1 54/130/1
f 8/7/2 6/10/2 28/118/2 27/131/2
f 107/132/5 108/133/5 66/134/5 26/135/5
f 68/136/5 64/137/5 69/138/5 67/139/5
f 87/140/7 88/141/7 74/142/7 71/143/7
f 25/144/5 73/145/5 72/146/5 65/147/5
f 75/50/4 63/50/4 76/50/4 77/50/4
f 69/148/7 64/149/7 63/150/7 75/151/7
f 78/35/4 70/35/4 79/35/4 80/35/4
f 68/136/5 67/139/5 70/152/5 78/153/5
f 32/59/2 31/64/2 73/154/2 25/60/2
f 83/155/2 47/156/2 74/157/2 88/158/2
f 23/39/2 43/41/2 63/159/2 64/160/2
f 58/117/2 22/51/2 68/161/2 78/162/2
f 22/51/2 23/39/2 64/160/2 68/161/2
f 44/93/3 24/53/3 69/163/3 75/164/3
f 47/88/8 48/87/8 71/143/8 74/142/8
f 61/114/6 62/113/6 26/165/6 66/166/6
f 24/53/3 21/46/3 67/116/3 69/163/3
f 45/86/8 46/85/8 77/167/8 76/168/8
f 29/20/3 30/19/3 65/169/3 72/43/3
f 59/112/6 60/111/6 80/170/6 79/171/6
f 31/64/2 94/124/2 90/172/2 73/154/2
f 1/16/3 29/20/3 92/42/3 89/173/3
f 3/17/3 1/16/3 89/173/3 93/174/3
f 72/175/7 73/176/7 90/177/7 96/178/7
f 82/38/4 92/38/4 96/38/4 87/38/4
f 10/29/1 3/28/1 93/179/1 95/180/1
f 97/181/2 100/182/2 99/183/2 98/184/2
f 47/185/5 83/186/5 97/187/5 98/188/5
f 38/78/4 47/88/4 98/189/4 99/190/4
f 83/191/6 86/192/6 100/193/6 97/194/6
f 25/144/5 65/147/5 108/133/5 107/132/5
f 9/62/2 32/59/2 101/58/2 106/195/2
f 30/19/3 102/11/3 108/82/3 65/169/3
f 4/27/1 11/30/1 104/66/1 103/65/1
f 62/113/6 53/101/6 110/196/6 109/197/6
f 2/15/3 4/18/3 103/25/3 105/12/3
f 30/19/3 2/15/3 105/12/3 102/11/3
f 111/198/2 113/199/2 109/200/2 110/201/2
f 109/200/2 113/199/2 114/202/2 112/203/2
f 26/165/6 62/113/6 109/197/6 112/204/6
f 101/126/4 107/205/4 114/206/4 113/127/4
f 107/132/5 26/135/5 112/207/5 114/208/5
f 53/209/1 106/210/1 111/211/1 110/212/1
